<?xml version="1.0" encoding="UTF-8" standalone="no"?>
<svg
   xmlns:osb="http://www.openswatchbook.org/uri/2009/osb"
   xmlns:dc="http://purl.org/dc/elements/1.1/"
   xmlns:cc="http://creativecommons.org/ns#"
   xmlns:rdf="http://www.w3.org/1999/02/22-rdf-syntax-ns#"
   xmlns:svg="http://www.w3.org/2000/svg"
   xmlns="http://www.w3.org/2000/svg"
   xmlns:xlink="http://www.w3.org/1999/xlink"
   xmlns:sodipodi="http://sodipodi.sourceforge.net/DTD/sodipodi-0.dtd"
   xmlns:inkscape="http://www.inkscape.org/namespaces/inkscape"
   width="24"
   height="24"
   viewBox="0 0 24 24"
   id="svg6874"
   version="1.1"
   inkscape:version="0.91 r13725"
   sodipodi:docname="resume-icon.svg">
  <metadata
     id="metadata6882">
    <rdf:RDF>
      <cc:Work
         rdf:about="">
        <dc:format>image/svg+xml</dc:format>
        <dc:type
           rdf:resource="http://purl.org/dc/dcmitype/StillImage" />
        <dc:title></dc:title>
      </cc:Work>
    </rdf:RDF>
  </metadata>
  <defs
     id="defs6880">
    <linearGradient
       id="linearGradient7424"
       osb:paint="solid">
      <stop
         style="stop-color:#cb4b16;stop-opacity:1;"
         offset="0"
         id="stop7426" />
    </linearGradient>
    <linearGradient
       inkscape:collect="always"
       xlink:href="#linearGradient7424"
       id="linearGradient7428"
       x1="2"
       y1="12"
       x2="22"
       y2="12"
       gradientUnits="userSpaceOnUse"
       gradientTransform="matrix(0.77627119,0,0,0.77118644,2.6847457,2.7457627)" />
  </defs>
  <sodipodi:namedview
     pagecolor="#ffffff"
     bordercolor="#666666"
     borderopacity="1"
     objecttolerance="10"
     gridtolerance="10"
     guidetolerance="10"
     inkscape:pageopacity="0"
     inkscape:pageshadow="2"
     inkscape:window-width="954"
     inkscape:window-height="789"
     id="namedview6878"
     showgrid="false"
     inkscape:zoom="9.8333333"
     inkscape:cx="-3"
     inkscape:cy="12"
     inkscape:window-x="575"
     inkscape:window-y="152"
     inkscape:window-maximized="0"
     inkscape:current-layer="svg6874" />
  <path
     d="m 11.504739,4.2881356 c 3.226183,0 2.047804,4.6271187 2.047804,4.6271187 0,0 4.657626,-1.2724577 4.657626,1.8948057 l 0,8.901805 -12.4203385,0 0,-15.4237294 5.7149085,0 z m 0.641976,-1.5423729 -7.9094269,0 0,18.5084753 15.5254239,0 0,-11.094289 c 0,-1.8439067 -5.160651,-7.4141863 -7.615997,-7.4141863 z m 3.73464,10.0254243 -7.7627109,0 0,-0.771187 7.7627109,0 0,0.771187 z m 0,1.542373 -7.7627109,0 0,0.771186 7.7627109,0 0,-0.771186 z m 0,2.313558 -7.7627109,0 0,0.771187 7.7627109,0 0,-0.771187 z"
     id="path6876"
     style="fill:url(#linearGradient7428);fill-opacity:1"
     inkscape:connector-curvature="0" />
</svg>
